<svg width="600" height="600" viewBox="0 0 600 600" xmlns="http://www.w3.org/2000/svg" >
  

  <rect x="0" y="0" width="600" height="600" fill="none" stroke="white" stroke-width="1"/>
  


<!-- Connessione Legno-Legno (2 piano di taglio) -->
<!-- <g transform="translate(150, 150)">
    <rect x="0" y="0" width="100" height="200" fill="#EAD9C8" stroke="black" strokeWidth="2"/>
    <rect x="100" y="100" width="100" height="200" fill="#EAD9C8" stroke="black" strokeWidth="2"/>
    <rect x="200" y="0" width="100" height="200" fill="#EAD9C8" stroke="black" strokeWidth="2"/>
</g> -->



<!-- Connessione Legno-Legno (1 piano di taglio) -->
<!-- <g transform="translate(200, 150)">
    <rect x="0" y="0" width="100" height="200" fill="#EAD9C8" stroke="black" strokeWidth="2"/>
    <rect x="100" y="100" width="100" height="200" fill="#EAD9C8" stroke="black" strokeWidth="2"/>
</g> -->



<!-- Connessione Piastra acciaio-Legno (1 piano di taglio) -->
<!-- <g transform="translate(160, 120)">
    <rect x="90" y="0" width="10" height="200" fill="#A9A9A9" stroke="black" strokeWidth="2"/>
    <rect x="100" y="100" width="100" height="200" fill="#EAD9C8" stroke="black" strokeWidth="2"/>
</g> -->



<!-- Piastra di acciaio esterna (2 piano di taglio) -->
<!-- <g transform="translate(150, 120)">
    <rect x="90" y="0" width="10" height="200" fill="#A9A9A9" stroke="black" strokeWidth="2"/>
    <rect x="100" y="100" width="100" height="200" fill="#EAD9C8" stroke="black" strokeWidth="2"/>
    <rect x="200" y="0" width="10" height="200" fill="#A9A9A9" stroke="black" strokeWidth="2"/>
</g> -->



<!-- Piastra di acciaio interna (2 piano di taglio) -->
<!-- <g transform="translate(100, 120)">
    <rect x="100" y="100" width="100" height="200" fill="#EAD9C8" stroke="black" strokeWidth="2"/>
    <rect x="200" y="0" width="10" height="200" fill="#A9A9A9" stroke="black" strokeWidth="2"/>
    <rect x="210" y="100" width="100" height="200" fill="#EAD9C8" stroke="black" strokeWidth="2"/>
</g> -->


</svg>


