<svg width="300" height="300">		  
		  <polygon points="52.34375,56.25 247.65625,56.25 247.65625,71.875 178.3203125,71.875 178.3203125,71.875 177.91127172413,71.878569644772 177.50235554604,71.88927749174 177.09368852556,71.90712027919 176.68539514662,71.932092572035 176.27759977935,71.964186763475 175.87042664216,72.003393077306 175.46399976394,72.049699570907 175.05844294625,72.103092138869 174.65387972562,72.163554517301 174.25043333593,72.231068288776 173.84822667086,72.305612887945 173.44738224646,72.387165607801 173.04802216382,72.475701606596 172.65026807188,72.571193915406 172.25424113041,72.67361344635 171.86006197304,72.782929001446 171.46785067056,72.899107282116 171.07772669434,73.022112899332 170.68980887991,73.151908384391 170.3042153908,73.28845420033 169.92106368253,73.431708753972 169.54047046681,73.581628408591 169.16255167603,73.738167497208 168.78742242791,73.901278336502 168.41519699045,74.070911241329 168.04598874713,74.247014539863 167.67991016235,74.429534589335 167.31707274721,74.618415792369 166.95758702548,74.81360061392 166.6015625,75.015029598802 166.2491076193,75.222641389794 165.90032974453,75.436372746334 165.55533511684,75.656158563779 165.2142288249,75.881931893241 164.87711477302,76.113623961977 164.5440956494,76.351164194337 164.21527289487,76.594480233267 163.89074667205,76.843497962342 163.57061583477,77.098141528352 163.25497789797,77.358333364399 162.94392900803,77.623994213529 162.63756391346,77.895043152874 162.33597593604,78.171397618301 162.03925694237,78.452973429563 161.74749731594,78.73968481594 161.46078592956,79.031444442367 161.1792101183,79.328163436035 160.90285565287,79.629751413464 160.63180671353,79.936116508035 160.3661458644,80.247165397972 160.10595402835,80.562803334769 159.85131046234,80.882934172055 159.60229273327,81.207460394874 159.35897669434,81.536283149395 159.12143646198,81.869302273022 158.88974439324,82.206416324904 158.66397106378,82.547522616835 158.44418524633,82.892517244534 158.23045388979,83.241295119296 158.0228420988,83.59375 157.82141311392,83.949774525476 157.62622829237,84.309260247206 157.43734708934,84.672097662354 157.25482703986,85.038176247131 157.07872374133,85.407384490452 156.9090908365,85.779609927911 156.74597999721,86.154739176033 156.58944090859,86.532657966815 156.43952125397,86.913251182532 156.29626670033,87.296402890805 156.15972088439,87.68199637991 156.02992539933,88.069914194337 155.90691978212,88.460038170561 155.79074150145,88.852249473039 155.68142594635,89.24642863041 155.57900641541,89.642455571883 155.4835141066,90.040209663816 155.3949781078,90.439569746459 155.31342538795,90.840414170862 155.23888078878,91.242620835931 155.1713670173,91.64606722562 155.11090463887,92.050630446248 155.05751207091,92.456187263942 155.01120557731,92.862614142164 154.97199926347,93.269787279352 154.93990507204,93.677582646622 154.91493277919,94.085876025556 154.89708999174,94.494543046035 154.88638214477,94.903459224126 154.8828125,95.3125 154.8828125,204.6875 154.8828125,204.6875 154.88638214477,205.09654077587 154.89708999174,205.50545695396 154.91493277919,205.91412397444 154.93990507204,206.32241735338 154.97199926347,206.73021272065 155.01120557731,207.13738585784 155.05751207091,207.54381273606 155.11090463887,207.94936955375 155.1713670173,208.35393277438 155.23888078878,208.75737916407 155.31342538795,209.15958582914 155.3949781078,209.56043025354 155.4835141066,209.95979033618 155.57900641541,210.35754442812 155.68142594635,210.75357136959 155.79074150145,211.14775052696 155.90691978212,211.53996182944 156.02992539933,211.93008580566 156.15972088439,212.31800362009 156.29626670033,212.7035971092 156.43952125397,213.08674881747 156.58944090859,213.46734203319 156.74597999721,213.84526082397 156.9090908365,214.22039007209 157.07872374133,214.59261550955 157.25482703986,214.96182375287 157.43734708934,215.32790233765 157.62622829237,215.69073975279 157.82141311392,216.05022547452 158.0228420988,216.40625 158.23045388979,216.7587048807 158.44418524633,217.10748275547 158.66397106378,217.45247738316 158.88974439324,217.7935836751 159.12143646198,218.13069772698 159.35897669434,218.4637168506 159.60229273327,218.79253960513 159.85131046234,219.11706582795 160.10595402835,219.43719666523 160.3661458644,219.75283460203 160.63180671353,220.06388349197 160.90285565287,220.37024858654 161.1792101183,220.67183656396 161.46078592956,220.96855555763 161.74749731594,221.26031518406 162.03925694237,221.54702657044 162.33597593604,221.8286023817 162.63756391346,222.10495684713 162.94392900803,222.37600578647 163.25497789797,222.6416666356 163.57061583477,222.90185847165 163.89074667205,223.15650203766 164.21527289487,223.40551976673 164.5440956494,223.64883580566 164.87711477302,223.88637603802 165.2142288249,224.11806810676 165.55533511684,224.34384143622 165.90032974453,224.56362725367 166.2491076193,224.77735861021 166.6015625,224.9849704012 166.95758702548,225.18639938608 167.31707274721,225.38158420763 167.67991016235,225.57046541066 168.04598874713,225.75298546014 168.41519699045,225.92908875867 168.78742242791,226.0987216635 169.16255167603,226.26183250279 169.54047046681,226.41837159141 169.92106368253,226.56829124603 170.3042153908,226.71154579967 170.68980887991,226.84809161561 171.07772669434,226.97788710067 171.46785067056,227.10089271788 171.86006197304,227.21707099855 172.25424113041,227.32638655365 172.65026807188,227.42880608459 173.04802216382,227.5242983934 173.44738224646,227.6128343922 173.84822667086,227.69438711205 174.25043333593,227.76893171122 174.65387972562,227.8364454827 175.05844294625,227.89690786113 175.46399976394,227.95030042909 175.87042664216,227.99660692269 176.27759977935,228.03581323653 176.68539514662,228.06790742796 177.09368852556,228.09287972081 177.50235554604,228.11072250826 177.91127172413,228.12143035523 178.3203125,228.125 247.65625,228.125 247.65625,243.75 52.34375,243.75 52.34375,228.125 121.6796875,228.125 121.6796875,228.125 122.08872827587,228.12143035523 122.49764445396,228.11072250826 122.90631147444,228.09287972081 123.31460485338,228.06790742796 123.72240022065,228.03581323653 124.12957335784,227.99660692269 124.53600023606,227.95030042909 124.94155705375,227.89690786113 125.34612027438,227.8364454827 125.74956666407,227.76893171122 126.15177332914,227.69438711205 126.55261775354,227.6128343922 126.95197783618,227.5242983934 127.34973192812,227.42880608459 127.74575886959,227.32638655365 128.13993802696,227.21707099855 128.53214932944,227.10089271788 128.92227330566,226.97788710067 129.31019112009,226.84809161561 129.6957846092,226.71154579967 130.07893631747,226.56829124603 130.45952953319,226.41837159141 130.83744832397,226.26183250279 131.21257757209,226.0987216635 131.58480300955,225.92908875867 131.95401125287,225.75298546014 132.32008983765,225.57046541066 132.68292725279,225.38158420763 133.04241297452,225.18639938608 133.3984375,224.9849704012 133.7508923807,224.77735861021 134.09967025547,224.56362725367 134.44466488316,224.34384143622 134.7857711751,224.11806810676 135.12288522698,223.88637603802 135.4559043506,223.64883580566 135.78472710513,223.40551976673 136.10925332795,223.15650203766 136.42938416523,222.90185847165 136.74502210203,222.6416666356 137.05607099197,222.37600578647 137.36243608654,222.10495684713 137.66402406396,221.8286023817 137.96074305763,221.54702657044 138.25250268406,221.26031518406 138.53921407044,220.96855555763 138.8207898817,220.67183656396 139.09714434713,220.37024858654 139.36819328647,220.06388349197 139.6338541356,219.75283460203 139.89404597165,219.43719666523 140.14868953766,219.11706582795 140.39770726673,218.79253960513 140.64102330566,218.4637168506 140.87856353802,218.13069772698 141.11025560676,217.7935836751 141.33602893622,217.45247738316 141.55581475367,217.10748275547 141.76954611021,216.7587048807 141.9771579012,216.40625 142.17858688608,216.05022547452 142.37377170763,215.69073975279 142.56265291066,215.32790233765 142.74517296014,214.96182375287 142.92127625867,214.59261550955 143.0909091635,214.22039007209 143.25402000279,213.84526082397 143.41055909141,213.46734203319 143.56047874603,213.08674881747 143.70373329967,212.7035971092 143.84027911561,212.31800362009 143.97007460067,211.93008580566 144.09308021788,211.53996182944 144.20925849855,211.14775052696 144.31857405365,210.75357136959 144.42099358459,210.35754442812 144.5164858934,209.95979033618 144.6050218922,209.56043025354 144.68657461205,209.15958582914 144.76111921122,208.75737916407 144.8286329827,208.35393277438 144.88909536113,207.94936955375 144.94248792909,207.54381273606 144.98879442269,207.13738585784 145.02800073653,206.73021272065 145.06009492796,206.32241735338 145.08506722081,205.91412397444 145.10291000826,205.50545695396 145.11361785523,205.09654077587 145.1171875,204.6875 145.1171875,95.3125 145.1171875,95.3125 145.11361785523,94.903459224126 145.10291000826,94.494543046035 145.08506722081,94.085876025556 145.06009492796,93.677582646622 145.02800073653,93.269787279352 144.98879442269,92.862614142164 144.94248792909,92.456187263942 144.88909536113,92.050630446248 144.8286329827,91.64606722562 144.76111921122,91.242620835931 144.68657461205,90.840414170862 144.6050218922,90.439569746459 144.5164858934,90.040209663816 144.42099358459,89.642455571883 144.31857405365,89.24642863041 144.20925849855,88.852249473039 144.09308021788,88.460038170561 143.97007460067,88.069914194337 143.84027911561,87.68199637991 143.70373329967,87.296402890805 143.56047874603,86.913251182532 143.41055909141,86.532657966815 143.25402000279,86.154739176033 143.0909091635,85.779609927911 142.92127625867,85.407384490452 142.74517296014,85.038176247131 142.56265291066,84.672097662354 142.37377170763,84.309260247206 142.17858688608,83.949774525476 141.9771579012,83.59375 141.76954611021,83.241295119296 141.55581475367,82.892517244534 141.33602893622,82.547522616835 141.11025560676,82.206416324904 140.87856353802,81.869302273022 140.64102330566,81.536283149395 140.39770726673,81.207460394874 140.14868953766,80.882934172055 139.89404597165,80.562803334769 139.6338541356,80.247165397972 139.36819328647,79.936116508035 139.09714434713,79.629751413464 138.8207898817,79.328163436035 138.53921407044,79.031444442367 138.25250268406,78.73968481594 137.96074305763,78.452973429563 137.66402406396,78.171397618301 137.36243608654,77.895043152874 137.05607099197,77.623994213529 136.74502210203,77.358333364399 136.42938416523,77.098141528352 136.10925332795,76.843497962342 135.78472710513,76.594480233267 135.4559043506,76.351164194337 135.12288522698,76.113623961977 134.7857711751,75.881931893241 134.44466488316,75.656158563779 134.09967025547,75.436372746334 133.7508923807,75.222641389794 133.3984375,75.015029598802 133.04241297452,74.81360061392 132.68292725279,74.618415792369 132.32008983765,74.429534589335 131.95401125287,74.247014539863 131.58480300955,74.070911241329 131.21257757209,73.901278336502 130.83744832397,73.738167497208 130.45952953319,73.581628408591 130.07893631747,73.431708753972 129.6957846092,73.28845420033 129.31019112009,73.151908384391 128.92227330566,73.022112899332 128.53214932944,72.899107282116 128.13993802696,72.782929001446 127.74575886959,72.67361344635 127.34973192812,72.571193915406 126.95197783618,72.475701606596 126.55261775354,72.387165607801 126.15177332914,72.305612887945 125.74956666407,72.231068288776 125.34612027438,72.163554517301 124.94155705375,72.103092138869 124.53600023606,72.049699570907 124.12957335784,72.003393077306 123.72240022065,71.964186763475 123.31460485338,71.932092572035 122.90631147444,71.90712027919 122.49764445396,71.88927749174 122.08872827587,71.878569644772 121.6796875,71.875 52.34375,71.875 " style="fill:#004466;stroke:white;stroke-width:3;"></polygon>
		  

		</svg>