<svg xmlns="http://www.w3.org/2000/svg" width="800.000" height="600.000" viewBox="0.0 0.0 800.000 600.000" version="1.1">
  <path d="M2.26 401.24L2.26 354.34L400 198.76L797.74 354.34L797.74 401.24L760.58 401.24L543.75 328.6L531.08 324.56L518.29 320.9L505.41 317.61L492.43 314.7L479.38 312.18L466.25 310.04L453.07 308.29L439.84 306.92L426.58 305.95L413.3 305.36L400 305.16L386.7 305.36L373.42 305.95L360.16 306.92L346.93 308.29L333.75 310.04L320.62 312.18L307.57 314.7L294.59 317.61L281.71 320.9L268.92 324.56L256.25 328.6L39.42 401.24L2.26 401.24Z" 
  fill="#D2B48C" stroke="black"/>
</svg>